<svg width="1400" height="1700" viewBox="0 0 1400 1700" fill="none" xmlns="http://www.w3.org/2000/svg">
<path d="M0 1700H1400C1383.42 1571.48 1368.23 1500.46 1320 1377.5C1288.33 1300.8 1264.48 1261.37 1216 1194.5C1172.77 1134.8 1142.88 1104.49 1085 1053C1025.23 1002.8 1001.35 987.513 898 938.5C852.878 913.141 800.346 896.41 700.5 866L526.5 772L380 655C380 655 250.001 514 213.501 456.5C177 399 148.876 351.903 112 283.5C112 283.5 68.0302 192.721 68.5005 193.5C68.9708 194.279 25.3277 81.586 0 0V1700Z" fill="url(#paint0_linear_187_339)"/>
<defs>
<linearGradient id="paint0_linear_187_339" x1="700" y1="0" x2="700" y2="1700" gradientUnits="userSpaceOnUse">
<stop stop-color="#FFA793"/>
<stop offset="1" stop-color="#FF8249"/>
</linearGradient>
</defs>
</svg>
