<svg width="260" height="76" viewBox="0 0 260 76" fill="none" xmlns="http://www.w3.org/2000/svg">
<path d="M24.1641 48.576C22.9161 48.576 21.8921 48.176 21.0921 47.376C20.2921 46.544 19.8921 45.44 19.8921 44.064C19.8921 42.656 20.5961 38.704 22.0041 32.208C21.1721 32.016 19.8281 31.92 17.9721 31.92C16.1161 31.92 14.3401 32.08 12.6441 32.4C11.0121 39.76 10.1481 44.688 10.0521 47.184C8.90006 47.824 6.46806 48.144 2.75606 48.144H2.27606C2.37206 46.736 3.22006 42.528 4.82006 35.52C6.45206 28.512 7.46006 23.248 7.84406 19.728C7.84406 19.216 7.68406 18.608 7.36406 17.904C7.04406 17.168 6.72406 16.576 6.40406 16.128L5.87606 15.456L6.02006 14.736C7.90806 14.192 10.9001 13.92 14.9961 13.92C15.3801 14.56 15.5721 15.6 15.5721 17.04C15.5721 18.48 14.8521 22.448 13.4121 28.944H22.6761C23.7961 23.248 24.3721 19.184 24.4041 16.752C24.4041 16.208 24.3721 15.76 24.3081 15.408C26.8681 14.416 29.4441 13.92 32.0361 13.92C32.1321 14.112 32.1801 14.592 32.1801 15.36C32.1801 17.12 31.3961 21.648 29.8281 28.944C28.2921 36.24 27.5241 40.88 27.5241 42.864C27.5241 43.728 27.6681 44.16 27.9561 44.16C28.2441 44.16 29.2201 43.744 30.8841 42.912L31.7481 44.688C28.9001 47.28 26.3721 48.576 24.1641 48.576Z" fill="#EB6446"/>
<path d="M44.8568 29.096C44.9048 29.048 45.0368 28.736 45.2528 28.16C46.3808 28.16 47.8928 28.496 49.7888 29.168C49.1888 31.16 48.7088 33.248 48.3488 35.432C47.9888 37.592 47.8088 39.14 47.8088 40.076C47.8088 40.988 47.9048 41.444 48.0968 41.444C48.2408 41.444 48.7688 41.216 49.6808 40.76L50.1128 40.544L50.7608 41.804C50.5448 41.996 50.2568 42.236 49.8968 42.524C49.5608 42.812 48.9128 43.208 47.9528 43.712C46.9928 44.192 46.1288 44.432 45.3608 44.432C43.8728 44.432 43.0088 43.76 42.7688 42.416C41.2328 43.76 39.8408 44.432 38.5928 44.432C37.3688 44.432 36.3248 43.952 35.4608 42.992C34.6208 42.032 34.2008 40.52 34.2008 38.456C34.2008 35.24 34.8608 32.708 36.1808 30.86C37.5008 28.988 39.0968 28.052 40.9688 28.052C42.3128 28.052 43.6088 28.4 44.8568 29.096ZM40.7528 41.372C41.3288 41.372 41.9768 41.144 42.6968 40.688C42.8648 37.304 43.4288 33.956 44.3888 30.644C43.6688 30.332 43.0568 30.176 42.5528 30.176C41.6888 30.176 40.9448 31.028 40.3208 32.732C39.7208 34.412 39.4208 36.272 39.4208 38.312C39.4208 40.352 39.8648 41.372 40.7528 41.372ZM49.6616 52.064C49.5416 51.776 49.4816 51.14 49.4816 50.156C49.4816 49.172 49.9496 46.532 50.8856 42.236C51.8216 37.916 52.2896 34.592 52.2896 32.264C52.2896 31.808 52.1816 31.328 51.9656 30.824C51.7496 30.296 51.5216 29.888 51.2816 29.6L50.9576 29.204L50.9936 28.736C52.1216 28.376 54.1136 28.196 56.9696 28.196C57.2336 28.7 57.4016 29.408 57.4736 30.32C59.3216 28.808 60.8576 28.052 62.0816 28.052C63.3296 28.052 64.3256 28.568 65.0696 29.6C65.8376 30.632 66.2216 32.144 66.2216 34.136C66.2216 37.616 65.5856 40.208 64.3136 41.912C63.0416 43.592 61.4336 44.432 59.4896 44.432C58.4816 44.432 57.6416 44.288 56.9696 44L56.6096 43.856L56.8616 42.452C57.0776 42.5 57.3296 42.524 57.6176 42.524C58.2416 42.524 58.7816 42.236 59.2376 41.66C59.7176 41.084 60.0776 40.352 60.3176 39.464C60.7976 37.688 61.0376 36.044 61.0376 34.532C61.0376 32.372 60.5936 31.292 59.7056 31.292C59.0096 31.292 58.2656 31.568 57.4736 32.12C57.3776 33.8 56.8856 36.74 55.9976 40.94C55.1096 45.14 54.6656 48.524 54.6656 51.092C53.3696 51.62 51.7016 51.944 49.6616 52.064ZM66.0979 52.064C65.9779 51.776 65.9179 51.14 65.9179 50.156C65.9179 49.172 66.3859 46.532 67.3219 42.236C68.2579 37.916 68.7259 34.592 68.7259 32.264C68.7259 31.808 68.6179 31.328 68.4019 30.824C68.1859 30.296 67.9579 29.888 67.7179 29.6L67.3939 29.204L67.4299 28.736C68.5579 28.376 70.5499 28.196 73.4059 28.196C73.6699 28.7 73.8379 29.408 73.9099 30.32C75.7579 28.808 77.2939 28.052 78.5179 28.052C79.7659 28.052 80.7619 28.568 81.5059 29.6C82.2739 30.632 82.6579 32.144 82.6579 34.136C82.6579 37.616 82.0219 40.208 80.7499 41.912C79.4779 43.592 77.8699 44.432 75.9259 44.432C74.9179 44.432 74.0779 44.288 73.4059 44L73.0459 43.856L73.2979 42.452C73.5139 42.5 73.7659 42.524 74.0539 42.524C74.6779 42.524 75.2179 42.236 75.6739 41.66C76.1539 41.084 76.5139 40.352 76.7539 39.464C77.2339 37.688 77.4739 36.044 77.4739 34.532C77.4739 32.372 77.0299 31.292 76.1419 31.292C75.4459 31.292 74.7019 31.568 73.9099 32.12C73.8139 33.8 73.3219 36.74 72.4339 40.94C71.5459 45.14 71.1019 48.524 71.1019 51.092C69.8059 51.62 68.1379 51.944 66.0979 52.064ZM88.4741 47.888C87.6821 48.368 87.2861 48.836 87.2861 49.292C87.2861 49.748 87.5381 49.976 88.0421 49.976C88.5701 49.976 89.1581 49.724 89.8061 49.22C90.4541 48.74 90.9941 47.948 91.4261 46.844C90.2741 47.06 89.2901 47.408 88.4741 47.888ZM86.7461 44.144C84.7301 44.144 83.7221 43.04 83.7221 40.832C83.7221 40.304 83.9621 38.78 84.4421 36.26C84.9221 33.74 85.1621 31.64 85.1621 29.96C85.1621 29.6 85.1141 29.264 85.0181 28.952C86.3141 28.448 88.0901 28.196 90.3461 28.196C90.4661 28.532 90.5261 29.108 90.5261 29.924C90.5261 30.74 90.2621 32.432 89.7341 35C89.2061 37.568 88.9421 39.224 88.9421 39.968C88.9421 40.712 89.2541 41.084 89.8781 41.084C90.6221 41.084 91.5221 40.712 92.5781 39.968C92.6981 38.552 93.1781 34.82 94.0181 28.772C94.8581 28.436 96.3701 28.268 98.5541 28.268H99.2381C98.7821 30.068 98.3381 32.66 97.9061 36.044C97.4741 39.428 97.1261 41.78 96.8621 43.1C96.3581 45.74 95.4221 47.888 94.0541 49.544C92.7101 51.224 90.9461 52.064 88.7621 52.064C87.8981 52.064 87.1061 51.836 86.3861 51.38C85.6901 50.924 85.3421 50.336 85.3421 49.616C85.3421 48.656 85.9301 47.78 87.1061 46.988C88.2821 46.196 89.8661 45.584 91.8581 45.152C92.0741 44.096 92.2421 43.076 92.3621 42.092C90.4181 43.46 88.5461 44.144 86.7461 44.144Z" fill="#EB6446"/>
<path d="M0 66.0472C11.0211 65.13 21.4813 64.3177 31.5051 63.61C41.5642 62.8999 51.1839 62.295 60.4898 61.7949C72.0236 61.1752 83.0756 60.7165 93.8852 60.4179C98.7994 60.2822 103.663 60.1796 108.5 60.11C112.515 60.0523 116.51 60.0173 120.5 60.005C125.702 59.989 130.893 60.0115 136.102 60.0726C141.118 60.1314 146.15 60.2259 151.224 60.356C161.682 60.6241 172.32 61.0434 183.36 61.6131C193.564 62.1397 204.112 62.7947 215.18 63.5776C225.307 64.294 235.868 65.1173 247 66.0472V75.9326L215.18 70.4956L183.36 68.0241L151.224 66.0472H136.102H120.5H108.5H93.8852L60.4898 68.0241L31.5051 70.4956L0 75.9326V66.0472Z" fill="#C4C4C4"/>
<path d="M148.26 49.576C145.284 49.576 142.82 48.376 140.868 45.976C138.916 43.544 137.94 40.376 137.94 36.472C137.94 32.568 138.612 29.016 139.956 25.816C141.3 22.584 143.22 19.96 145.716 17.944C148.212 15.928 150.868 14.92 153.684 14.92C156.532 14.92 158.82 15.56 160.548 16.84C162.308 18.12 163.188 19.656 163.188 21.448C163.188 23.208 162.66 24.712 161.604 25.96C160.58 25.96 159.428 25.736 158.148 25.288C156.868 24.84 155.908 24.296 155.268 23.656L156.18 18.808C155.412 18.328 154.404 18.088 153.156 18.088C151.204 18.088 149.476 19.768 147.972 23.128C146.468 26.456 145.716 30.568 145.716 35.464C145.716 38.696 146.244 41.048 147.3 42.52C148.388 43.96 149.7 44.68 151.236 44.68C153.764 44.68 156.196 43.496 158.532 41.128L160.5 42.904C160.148 43.416 159.508 44.12 158.58 45.016C157.652 45.912 156.74 46.664 155.844 47.272C154.948 47.848 153.812 48.376 152.436 48.856C151.06 49.336 149.668 49.576 148.26 49.576Z" fill="#EB6446"/>
<path d="M168.415 24.24C168.415 23.448 168.343 22.884 168.199 22.548C170.071 21.9 171.835 21.576 173.491 21.576C173.707 21.792 173.815 22.344 173.815 23.232C173.815 24.816 173.143 28.464 171.799 34.176C173.743 32.76 175.447 32.052 176.911 32.052C177.823 32.052 178.507 32.34 178.963 32.916C179.443 33.492 179.683 34.26 179.683 35.22C179.683 36.156 179.407 37.704 178.855 39.864C178.303 42 178.027 43.464 178.027 44.256C178.027 45.048 178.123 45.444 178.315 45.444C178.507 45.444 179.011 45.228 179.827 44.796L180.259 44.58L180.907 45.84C180.691 46.032 180.403 46.272 180.043 46.56C179.683 46.848 179.023 47.232 178.063 47.712C177.103 48.192 176.215 48.432 175.399 48.432C174.607 48.432 173.971 48.18 173.491 47.676C173.011 47.148 172.771 46.452 172.771 45.588C172.771 44.7 173.035 43.104 173.563 40.8C174.115 38.472 174.391 37.008 174.391 36.408C174.391 35.784 174.139 35.472 173.635 35.472C173.011 35.472 172.231 35.736 171.295 36.264C169.975 42.072 169.315 45.84 169.315 47.568C168.307 47.952 166.591 48.144 164.167 48.144C164.143 47.736 164.131 47.376 164.131 47.064C164.131 46.032 164.839 42.504 166.255 36.48C167.695 30.456 168.415 26.376 168.415 24.24ZM188.794 34.284C188.794 35.292 188.47 37.032 187.822 39.504C187.174 41.952 186.85 43.56 186.85 44.328C186.85 45.072 186.958 45.444 187.174 45.444C187.318 45.444 187.87 45.216 188.83 44.76L189.262 44.544L189.874 45.804C189.658 45.996 189.37 46.236 189.01 46.524C188.65 46.812 187.978 47.208 186.994 47.712C186.01 48.192 185.098 48.432 184.258 48.432C183.418 48.432 182.758 48.18 182.278 47.676C181.798 47.148 181.558 46.452 181.558 45.588C181.558 44.7 181.858 43.14 182.458 40.908C183.058 38.652 183.358 37.188 183.358 36.516C183.358 35.508 183.046 34.56 182.422 33.672L182.098 33.24L182.134 32.772C183.406 32.412 185.47 32.232 188.326 32.232C188.638 32.592 188.794 33.276 188.794 34.284ZM184.69 28.308C184.21 27.828 183.97 27.192 183.97 26.4C183.97 25.608 184.294 24.912 184.942 24.312C185.614 23.712 186.382 23.412 187.246 23.412C188.11 23.412 188.782 23.652 189.262 24.132C189.742 24.612 189.982 25.248 189.982 26.04C189.982 26.808 189.634 27.492 188.938 28.092C188.266 28.692 187.51 28.992 186.67 28.992C185.83 28.992 185.17 28.764 184.69 28.308ZM193.203 48.432C192.387 48.432 191.703 48.156 191.151 47.604C190.623 47.052 190.359 46.284 190.359 45.3C190.359 44.292 190.947 41.112 192.123 35.76C193.323 30.384 193.923 26.508 193.923 24.132L193.707 22.548C195.579 21.9 197.331 21.576 198.963 21.576C199.203 21.912 199.323 22.5 199.323 23.34C199.323 25.26 198.711 28.98 197.487 34.5C196.287 39.996 195.687 43.2 195.687 44.112C195.687 45 195.795 45.444 196.011 45.444L198.531 44.544L199.179 45.804C198.363 46.452 197.367 47.052 196.191 47.604C195.039 48.156 194.043 48.432 193.203 48.432ZM216.337 45.804C214.297 47.556 212.497 48.432 210.937 48.432C209.401 48.432 208.513 47.664 208.273 46.128C207.553 46.848 206.749 47.412 205.861 47.82C204.973 48.228 204.193 48.432 203.521 48.432C202.369 48.432 201.385 47.928 200.569 46.92C199.753 45.912 199.345 44.352 199.345 42.24C199.345 39.072 200.017 36.588 201.361 34.788C202.705 32.964 204.217 32.052 205.897 32.052C207.601 32.052 209.029 32.436 210.181 33.204C210.925 29.316 211.297 26.256 211.297 24.024L211.117 22.512C212.917 21.888 214.681 21.576 216.409 21.576C216.601 21.984 216.697 22.452 216.697 22.98C216.697 24.732 216.169 28.296 215.113 33.672C214.057 39.024 213.529 42.66 213.529 44.58C213.529 45.156 213.661 45.444 213.925 45.444C214.069 45.444 214.525 45.216 215.293 44.76L215.653 44.544L216.337 45.804ZM207.661 34.176C206.821 34.176 206.089 35.004 205.465 36.66C204.865 38.316 204.565 39.96 204.565 41.592C204.565 43.2 204.673 44.232 204.889 44.688C205.129 45.144 205.477 45.372 205.933 45.372C206.725 45.372 207.505 45.048 208.273 44.4C208.345 43.44 208.885 40.248 209.893 34.824C209.077 34.392 208.333 34.176 207.661 34.176ZM217.344 48.108H217.092C217.044 47.916 217.02 47.484 217.02 46.812C217.02 46.116 217.344 44.268 217.992 41.268C218.64 38.268 218.964 36.552 218.964 36.12C218.964 35.376 218.628 34.56 217.956 33.672L217.632 33.24L217.668 32.772C218.964 32.412 221.04 32.232 223.896 32.232C224.184 32.856 224.328 33.732 224.328 34.86C224.592 34.428 225.144 33.852 225.984 33.132C226.824 32.412 227.688 32.052 228.576 32.052C229.872 32.052 230.52 33.18 230.52 35.436C230.4 35.58 230.232 35.772 230.016 36.012C229.824 36.228 229.416 36.54 228.792 36.948C228.192 37.356 227.604 37.608 227.028 37.704C227.004 37.704 226.8 37.38 226.416 36.732C226.032 36.084 225.744 35.76 225.552 35.76C224.952 35.976 224.424 36.336 223.968 36.84C222.864 41.808 222.312 45.024 222.312 46.488C222.312 47.016 222.324 47.388 222.348 47.604C221.508 47.94 219.84 48.108 217.344 48.108ZM228.873 41.772C228.873 38.772 229.773 36.408 231.573 34.68C233.397 32.928 235.461 32.052 237.765 32.052C239.181 32.052 240.345 32.4 241.257 33.096C242.169 33.792 242.625 34.728 242.625 35.904C242.625 37.056 242.325 38.028 241.725 38.82C241.149 39.612 240.441 40.224 239.601 40.656C237.897 41.496 236.337 42.024 234.921 42.24L234.057 42.348C234.225 44.604 235.149 45.732 236.829 45.732C237.405 45.732 238.017 45.588 238.665 45.3C239.313 45.012 239.817 44.724 240.177 44.436L240.717 44.004L241.581 45.156C241.389 45.42 241.005 45.768 240.429 46.2C239.853 46.632 239.313 46.992 238.809 47.28C237.417 48.048 235.893 48.432 234.237 48.432C232.581 48.432 231.273 47.844 230.313 46.668C229.353 45.492 228.873 43.86 228.873 41.772ZM234.021 40.584C235.245 40.368 236.217 39.852 236.937 39.036C237.657 38.22 238.017 37.164 238.017 35.868C238.017 34.572 237.633 33.924 236.865 33.924C235.953 33.924 235.245 34.704 234.741 36.264C234.261 37.8 234.021 39.24 234.021 40.584ZM243.648 48.108H242.964C242.964 46.98 243.3 44.82 243.972 41.628C244.668 38.436 245.016 36.624 245.016 36.192C245.016 35.4 244.68 34.56 244.008 33.672L243.684 33.24L243.72 32.772C245.016 32.412 247.092 32.232 249.948 32.232C250.26 32.64 250.428 33.384 250.452 34.464C252.54 32.856 254.304 32.052 255.744 32.052C256.608 32.052 257.292 32.352 257.796 32.952C258.324 33.552 258.588 34.308 258.588 35.22C258.588 36.108 258.312 37.656 257.76 39.864C257.208 42.072 256.932 43.56 256.932 44.328C256.932 45.072 257.028 45.444 257.22 45.444C257.364 45.444 257.868 45.216 258.732 44.76L259.164 44.544L259.812 45.804C259.596 45.996 259.308 46.236 258.948 46.524C258.588 46.812 257.916 47.208 256.932 47.712C255.972 48.192 255.108 48.432 254.34 48.432C252.588 48.432 251.712 47.436 251.712 45.444C251.712 44.604 251.976 43.056 252.504 40.8C253.056 38.544 253.332 37.092 253.332 36.444C253.332 35.796 253.128 35.472 252.72 35.472C252.024 35.472 251.172 35.772 250.164 36.372C250.092 36.78 249.852 37.86 249.444 39.612C248.604 43.38 248.184 46.044 248.184 47.604C247.344 47.94 245.832 48.108 243.648 48.108Z" fill="#EB6446"/>
<path d="M135.89 53.7522V53.5598H135.817C135.817 53.3994 135.781 53.2391 135.744 53.0466H135.708V52.9504L135.598 52.8863V52.7901L135.489 52.7259V52.6297L135.379 52.5656C135.27 52.4373 135.124 52.3411 134.978 52.277H134.868V52.2128H134.759V52.1487H134.43V52.1166H134.32V52.0525L133.809 52.1487C133.773 52.0525 133.663 51.8921 133.627 51.7959V51.6356L133.517 51.6035L133.444 51.3469H133.371C133.335 51.2507 133.298 51.1545 133.262 51.0583H133.189L133.152 50.8659L133.043 50.8338V50.7055H132.97V50.5452H132.897V50.3848H132.86V50.2245H132.787V50.1283H132.751L132.678 49.8396L132.568 49.8076V49.519H132.495V49.4227H132.422C132.385 49.2624 132.349 49.102 132.312 48.9096H132.276V48.7493H132.239V48.5889H132.166L132.13 48.2041H132.057C132.057 48.0758 132.02 47.9796 131.984 47.8513H131.947C131.911 47.691 131.874 47.5306 131.838 47.3382H131.765V47.1778H131.692V46.9854H131.655V46.8892H131.582V46.6968H131.509V46.5364V46.3761H131.436V46.0233H131.4L131.327 45.7668H131.254V45.6706H131.217L131.035 44.965H130.961V44.8047L130.852 44.7405V44.484L130.742 44.4519V44.2915H130.669V44.1312H130.633V44.035H130.56V43.8426H130.487V43.6822H130.45V43.4898H130.414V43.2974H130.341V43.137H130.304V42.9767H130.231V42.7201H130.195V42.5598H130.122C130.122 42.4315 130.085 42.3032 130.049 42.1749H130.012V42.0466L129.903 42.0146V41.8222H129.866V41.6618H129.793V41.3732H129.757L129.684 41.1808H129.611V40.9883H129.574V40.828H129.501C129.501 40.6997 129.465 40.6035 129.428 40.4752H129.392V40.379H129.318V40.2187H129.282V40.1225H129.209V39.9621L129.099 39.93L129.026 39.6735L128.917 39.6414V39.4811H128.844V39.3848H128.807L128.734 39.2245L128.625 39.1604L128.515 38.8717C128.442 38.8397 128.406 38.8076 128.333 38.7755C128.296 38.6793 128.26 38.5831 128.223 38.4869L128.114 38.4548V38.3586H128.077V38.1983L127.785 38.0058L127.749 37.8134L127.456 37.621V37.5248L127.347 37.4606L127.31 37.3003L127.091 37.1399V37.0437L126.982 36.9796V36.8834L126.799 36.7872V36.691L126.58 36.5306L126.507 36.3382L126.215 36.1778L126.142 35.9854L125.959 35.8892V35.793L125.558 35.5044V35.4082L125.448 35.344L125.375 35.1837L125.047 34.9271V34.8309L124.937 34.7668V34.7026L124.645 34.5102V34.414L124.463 34.3178V34.2216L124.243 34.0612V33.965L124.134 33.9329V33.8367L123.915 33.6764L123.878 33.516L123.769 33.4519V33.3878L123.659 33.3236L123.586 33.1633H123.55V33.0671L123.44 33.0029V32.9067L123.258 32.8105C123.258 32.7143 123.221 32.6501 123.185 32.5539L123.075 32.4898V32.4257H123.002C122.966 32.3615 123.002 32.2974 123.075 32.2653V31.656H123.002V31.4956L122.893 31.4315V31.3353L122.71 31.2391V31.1429H122.637V31.0466L122.527 30.9825V30.8222H122.491V30.6297H122.527C122.637 30.277 123.039 30.3732 123.331 30.2449L123.404 30.1487H123.586L123.659 30.0525H123.951V29.9883H124.134L124.207 29.8921H124.389V29.8601H124.572V29.828L124.974 29.7638L125.01 29.6676L125.302 29.6035L125.375 29.5073H125.485V29.4431H125.594V29.379H125.813V29.3149H125.923L125.996 29.2187L126.288 29.1545V29.0904C126.361 29.0262 126.434 28.9942 126.507 28.9942C126.544 28.8659 126.617 28.7697 126.726 28.7055H126.799V28.6093L126.909 28.5131V28.4169H126.945V28.3207H127.018V28.1604H127.091L127.128 28.0641H127.237L127.274 27.9038L127.493 27.7434V27.6472L127.602 27.5831V27.4227H127.675V27.2945H127.712V27.0379H127.785V26.6531H127.822L127.785 25.9155H127.712V25.691H127.675C127.675 25.6589 127.675 25.5948 127.712 25.5948V25.5306H127.675V25.3703H127.602V25.2099H127.493L127.383 24.9213H127.31V24.8251L127.201 24.7609V24.6647L126.872 24.4082L126.763 24.2478C126.617 24.1516 125.85 23.9271 125.558 23.9913V24.0554L125.229 24.1195V24.1837H125.047V24.2478C124.901 24.344 124.828 24.4402 124.645 24.5044C124.609 24.6006 124.645 24.5364 124.609 24.6006V24.6647H124.243C124.097 24.6968 123.951 24.7609 123.842 24.8571C123.769 24.9213 123.805 24.8571 123.769 24.9534C123.659 24.9854 123.55 25.0175 123.477 25.1137V25.1778L123.294 25.242L123.258 25.3382H123.112L123.002 25.4344H122.893V25.4985H122.783L122.71 25.5948H122.527V25.6589C122.381 25.6268 122.418 25.5948 122.308 25.5627C122.308 24.8571 122.199 24.1837 121.98 23.5102V23.1254H121.907V22.9329H121.87V22.7405H121.797V22.6443H121.761V22.2915H121.688V22.0991H121.615V21.5219H121.578V21.3615H121.505V21.0729H121.432V20.9125H121.396V20.8163H121.323V20.5598H121.286V20.3994H121.213V20.1429H121.14V20.0466H121.103L121.03 19.6618H120.957V19.5015H120.921V19.4052H120.848L120.811 19.1166H120.738L120.665 18.828H120.629V18.7318H120.556C120.519 18.5394 120.483 18.3469 120.446 18.1224H120.373V17.9942H120.337V17.8338H120.264V17.6735H120.191V17.5773C120.191 17.481 120.154 17.3848 120.118 17.2886L120.008 17.2245V17.1283H119.935V16.9359L119.826 16.8717V16.7755H119.753L119.716 16.6152C119.643 16.5831 119.57 16.551 119.497 16.519C119.497 16.07 119.461 15.5569 119.716 15.3644C119.789 15.172 119.753 15.3003 119.899 15.2041L119.935 15.1079H120.118V15.0437H120.227V14.9796H120.446V14.9475H120.738V14.8834H120.921V14.8192H121.103V14.7551H121.213V14.7872H121.396L121.797 14.5306V14.4344L121.907 14.3703V14.2741L122.016 14.2099V14.0496H122.053V13.9534H122.126V13.8251H122.199C122.162 13.2157 122.162 12.6064 122.126 11.965L122.235 11.9009V11.7405H122.308C122.345 11.6764 122.491 11.2595 122.418 11.1312H122.381C122.345 11.0029 122.345 11.0671 122.272 10.9708V10.9067H122.162L122.089 10.8105H121.87V10.7464H121.688C121.688 10.7464 121.651 10.6822 121.578 10.6501L121.359 10.105V10.0408H121.432L121.359 9.49563H121.286V9.30321H121.213V9.14286H121.14V9.04665H121.103V8.8863H121.03V8.69388H120.957V8.59767L120.848 8.53353V8.43732H120.811V8.34111H120.738V8.2449L120.629 8.14869V8.05248H120.556V7.95627L120.337 7.79592C120.337 7.73178 120.3 7.69971 120.264 7.63557L119.534 7.02624L119.461 6.76968L119.278 6.67347V6.57726L119.095 6.51312L118.913 6.3207H118.73L118.694 6.22449H118.511V6.16035H118.365V6.12828H118.183V6.06414H117.525V6L116.321 6.06414V6.12828H116.028V6.19242H115.809V6.25656H115.627V6.3207L115.225 6.38484V6.44898H115.116V6.51312H114.933V6.44898L114.714 6.51312V6.57726L114.495 6.6414V6.70554L114.312 6.76968L114.239 6.86589H114.13L114.057 6.9621H113.984L113.911 7.05831L113.728 7.12245C113.692 7.18659 113.655 7.21866 113.619 7.2828H113.509C113.509 7.31487 113.473 7.34694 113.436 7.37901L113.035 7.66764V7.76385L112.852 7.86006V7.95627L112.742 8.02041V8.05248L112.633 8.11662L112.56 8.40525L112.45 8.46939V8.62974H112.377C112.341 8.85423 112.377 9.07872 112.487 9.27114C112.633 9.43149 112.523 9.36735 112.706 9.33528C112.742 9.23907 112.742 9.17493 112.779 9.07872H112.815V8.82216H112.889V8.69388H112.925V8.5656L113.035 8.50146V8.40525L113.254 8.37318V8.27697L114.203 7.47522H114.349L114.458 7.31487L114.678 7.25073L114.751 7.15452H114.86L114.933 7.05831H115.043V6.99417L115.262 6.93003V6.86589L115.773 6.80175V6.73761H115.955V6.76968H116.248V6.70554H116.576V6.6414H116.978V6.57726H117.708V6.6414H118.146V6.70554H118.256V6.76968H118.438V6.83382H118.548L118.949 7.12245V7.21866H119.022V7.31487H119.059V7.47522H119.132V7.98834C119.461 8.95044 118.84 9.8484 118.694 10.586C118.511 10.586 118.329 10.6181 118.183 10.6822H118V10.7464L117.708 10.9388C117.598 11.2274 117.562 11.5481 117.598 11.8367C117.671 12.0292 117.927 12.3178 117.818 12.6385H117.744V12.863H117.671V13.0233H117.635V13.2157H117.562L117.525 13.4082H117.452C117.379 13.5685 117.343 13.6968 117.27 13.8571H117.197C117.16 13.9534 117.124 14.0496 117.087 14.1458H117.051C117.014 14.242 117.014 14.3061 116.978 14.4023H116.905V14.4985V14.691H116.832C116.832 14.7872 116.868 14.8513 116.905 14.9475C117.087 14.9155 117.051 14.9475 117.124 14.8513H117.197V14.7872L117.306 14.723V14.5627L117.416 14.4985V14.4023L117.525 14.3382L117.562 14.1458L117.671 14.0816V13.9854L117.781 13.9213V13.8251H117.818V13.7289H117.891V13.5685L118 13.5044V13.344H118.073V13.2478H118.11L118.183 12.9913H118.256V12.9271L118.475 13.0233L118.548 13.1195L118.73 13.1837V13.2478H118.913V13.312C119.132 13.344 119.387 13.312 119.607 13.2157C119.68 13.1516 119.716 13.1195 119.789 13.0554C119.789 12.9271 119.789 12.8309 119.716 12.7026H119.424L119.351 12.7988L118.949 12.7347C118.876 12.6706 118.84 12.6706 118.767 12.6385V12.5743H118.657L118.475 12.3819L118.365 12.3178V12.2216H118.292L118.183 12.1574C118.073 11.9971 118.183 11.9009 118 11.7726V11.3236L118.183 11.2274L118.256 11.1312H118.438V11.0671C118.657 11.0671 118.73 11.035 118.767 11.2274L119.095 11.2915L119.022 10.7784H119.095V10.6822H119.168V10.4898H119.205V10.2974H119.278V10.137H119.314V9.94461H119.387V9.65598C119.57 9.11079 119.643 8.53353 119.607 7.95627C119.862 8.02041 119.862 8.18076 120.008 8.34111H120.081L120.118 8.50146L120.3 8.59767V8.69388H120.373L120.483 8.98251H120.556V9.17493H120.629L120.702 9.43149C120.446 9.39942 120.191 9.43149 119.972 9.5277V9.62391C120.045 9.65598 120.008 9.68805 120.081 9.72012C120.337 9.81633 120.592 9.88047 120.884 9.91254L121.067 10.6501L121.14 10.8105C121.213 10.8426 121.14 10.9388 121.213 11.0029L121.432 11.1633V11.2274C121.578 11.2915 121.724 11.2274 121.87 11.2915C121.907 11.3236 121.943 11.3557 121.98 11.3878L121.943 11.5802L121.834 11.6443C121.797 11.7405 121.761 11.8367 121.724 11.9329H121.688L121.724 13.0875C121.505 13.1195 121.323 13.0554 121.14 12.9271C120.848 12.9271 120.738 12.863 120.702 13.0875H120.556L120.629 13.2799C120.811 13.312 120.884 13.4402 121.03 13.4723H121.213C121.323 13.5044 121.505 13.5685 121.615 13.6327C121.578 14.4665 120.665 14.2099 120.008 14.4985V14.5627H119.899L119.826 14.6589H119.716L119.607 14.8192H119.461L119.168 15.172V15.3324H119.095V15.4286H119.022V15.5889H118.986L118.913 16.2303C118.803 16.4869 118.803 16.7434 118.913 16.9679C118.365 17.0962 117.781 17.0962 117.27 16.9038H117.051V16.8397H116.832V16.7755L116.54 16.7114V16.6472L116.43 16.5831C116.467 16.3586 116.54 16.1341 116.649 15.9417C116.649 15.8134 116.613 15.6531 116.54 15.5569C116.248 15.5569 116.321 15.5889 116.211 15.7493H116.175V15.8455H116.101V16.07H116.028L115.992 16.3265C115.882 16.2945 115.955 16.3265 115.882 16.2624H115.554L115.481 16.3586L115.298 16.4548V16.6152H115.262V16.7755H115.189V16.9359H115.116V17.0962L115.006 17.1603L114.824 17.6093H114.787C114.751 17.6735 114.751 17.7376 114.714 17.8017H114.641V17.898L114.532 17.9621C114.495 18.1224 114.458 18.2507 114.422 18.4111H114.349L114.312 18.6035H114.239V18.6997L114.13 18.7638C114.13 18.8601 114.093 18.9563 114.057 19.0525H114.02V19.1487H113.984C113.984 19.2449 113.947 19.3411 113.911 19.4373H113.874V19.5335H113.801V19.7259H113.765C113.728 19.8542 113.728 19.9504 113.692 20.0787H113.619V20.2391H113.582V20.3994H113.509V20.5598H113.436L113.4 20.9125H113.327V21.1691H113.29V21.3294H113.254V21.5219H113.181V21.7143H113.144C113.071 22.0029 113.035 22.2915 112.962 22.5802L112.852 22.6443V22.8688H112.779V22.965L112.669 23.0292V23.1254L112.56 23.1895V23.3499L112.341 23.5102V23.6064L112.231 23.6706V23.8309L112.122 23.895V23.9913L112.012 24.0554V24.1516L111.903 24.2157V24.312L111.793 24.3761V24.4723L111.684 24.5364L111.611 24.6968H111.538V24.793H111.501C111.465 24.8892 111.428 24.9854 111.392 25.0816H111.355L111.392 25.1778C111.026 25.691 110.99 26.4286 110.99 27.2945C111.026 27.551 111.063 27.8397 111.099 28.0962H111.172L111.099 28.1924H111.172V28.3528H111.246V28.449H111.282L111.355 28.7376H111.392V28.93H111.465C111.501 29.0262 111.538 29.1224 111.574 29.2187H111.647V29.3149H111.72V29.4111H111.757V29.5073H111.83V29.6997L111.939 29.7638C112.012 29.9242 111.757 30.5656 111.72 30.6618L111.647 30.9504L111.538 31.0146V31.1749H111.428V31.2711H111.355V31.4315H111.319V31.5277H111.246L111.209 31.7843H111.136C111.136 31.8805 111.099 31.9767 111.063 32.0729H111.026V32.1691H110.953C110.953 32.3294 110.917 32.4577 110.88 32.6181H110.844V33.0029H110.88V33.1633H110.953L111.026 33.3557H111.063C111.172 33.516 111.172 33.6122 111.355 33.7085L111.026 34.6706L110.953 35.1195H110.88V35.2799H110.844C110.844 35.4723 110.807 35.6647 110.771 35.8892C110.588 36.4023 110.442 37.0437 110.26 37.5889C110.223 37.8455 110.187 38.1341 110.15 38.3907C109.895 39.0962 109.785 39.9621 109.529 40.6356C109.456 40.8921 109.42 41.1487 109.347 41.3732H109.274V41.4694H109.237C109.201 41.7259 109.128 42.0146 109.055 42.2711H108.982L108.909 42.4636H108.872V42.6239L108.763 42.656V42.8484H108.726C108.726 42.9125 108.69 42.9767 108.653 43.0408H108.617V43.137L108.398 43.2974V43.4257L108.288 43.4898V43.586L108.179 43.6501V43.7784L107.996 43.8746V43.9708H107.777V44.0671L107.485 44.2595V44.3557L107.083 44.6443V44.7405L106.572 45.1254L106.353 45.3819H106.244L105.623 45.9913H105.513L105.294 46.2799H105.185C105.075 46.4082 104.966 46.5044 104.856 46.6327H104.747C104.674 46.8892 104.381 46.9854 104.162 47.1458L103.651 47.6589L103.25 47.9155V48.0117L102.958 48.2041V48.3003C102.884 48.3644 102.811 48.3324 102.738 48.4606H102.629V48.5569C102.519 48.621 102.41 48.6851 102.3 48.7493V48.8455L102.118 48.9096L101.424 49.6152H101.315C101.241 49.9038 100.84 49.9359 100.694 50.1604H100.584C100.584 50.2245 100.511 50.2886 100.475 50.3528H100.402V50.449H100.365C100.329 50.5452 100.292 50.6414 100.256 50.7376H100.183V50.93H100.11V51.0262H100.073C100 51.1866 99.9636 51.3149 99.8906 51.4752H99.8176V51.7639H99.7445V51.8601H99.6715V52.0525H99.5985V52.2128H99.562V52.309H99.489V52.4694H99.4159V52.9184H99.3794V53.0787H99.3064V53.3673H99.2699V53.7522H99.1969V54.0408H99.1239V54.4898H99.0873V55.0671C99.0143 55.3878 98.9778 55.7405 99.0143 56.0612H99.0873L99.0143 56.2536H99.0873V56.6064H99.1239V57.1195H99.1969V57.2799H99.2699V57.6327H99.3064V57.793H99.3794V57.9854H99.4159V58.0816H99.489L99.562 58.3703H99.5985V58.4665L99.708 58.5306V58.6268L99.8176 58.6589V58.7551L99.9271 58.7872V58.9475L100.146 59.1079V59.2041L100.84 59.7493H100.949L101.168 60.0058H101.278C101.278 60.0379 101.315 60.07 101.351 60.102H101.461C101.461 60.102 101.534 60.1662 101.57 60.1983V60.2303L101.862 60.2945L101.935 60.3907L102.264 60.4869L102.3 60.5831H102.483V60.6152H102.592V60.6793L103.104 60.7755V60.8397H103.213V60.8717H103.396V60.9359H103.98V61L104.783 60.9359V60.8717H105.112V60.8397C105.294 60.8397 105.44 60.7755 105.55 60.6793L105.586 60.5831H105.696V60.519L105.878 60.4227C106.244 59.9738 106.28 59.0117 105.696 58.723V58.2741H105.769L105.878 57.9854H105.951V57.793H106.024L106.061 57.6006H106.134V57.5044L106.244 57.4723L106.463 56.9271L106.572 56.863V56.7668H106.645V56.6064H106.718V56.5102H106.791L106.828 56.3178H106.901V56.1574H106.974V56.0612H107.047V55.965L107.156 55.9009L107.229 55.7085H107.302V55.6122H107.339V55.516H107.412V55.4198H107.485V55.3236H107.521V55.2274L107.631 55.1312V55.035L107.74 54.9708V54.8746L107.85 54.8426V54.6822L107.96 54.6181V54.5219L108.069 54.4577V54.3615L108.179 54.2974V54.2012L108.288 54.1691L108.325 53.9767L108.434 53.9125V53.8163L108.544 53.7201V53.6239L108.726 53.5277L108.763 53.3353L108.945 53.2391V53.1429L109.055 53.1108L109.091 52.9184L109.164 52.8542V52.758L109.274 52.6618V52.5656L109.493 52.4053V52.309L109.603 52.2449L109.676 52.0845H109.749V51.9883L109.931 51.8921V51.7959H110.004V51.6997L110.114 51.6676C110.15 51.6035 110.15 51.5394 110.187 51.4752L110.296 51.4431L110.369 51.2507L110.698 50.9942L110.734 50.8018L110.917 50.7055C110.953 50.6093 110.99 50.5131 111.026 50.4169L111.136 50.3528V50.2566H111.172V50.1604H111.246V50.0641L111.392 50.0321C111.392 49.9359 111.428 49.8396 111.465 49.7434C111.757 49.6793 111.647 49.519 111.793 49.3586L112.012 49.1982V49.102L112.122 49.0379L112.195 48.8455L112.304 48.7813C112.304 48.7172 112.341 48.6531 112.377 48.5889L112.487 48.5248V48.3644L112.669 48.2682L112.779 47.9796L112.998 47.8192V47.723L113.108 47.6589L113.144 47.4665L113.254 47.4023L113.29 47.2099L113.509 47.0496V46.9534C113.546 46.9213 113.619 46.8892 113.692 46.8571V46.6968L113.911 46.5364V46.4402L114.02 46.3761C114.02 46.312 114.057 46.2478 114.093 46.1837L114.276 46.0875L114.312 45.895H114.385L114.458 45.7347L114.568 45.6706V45.5743L114.641 45.5102C114.641 45.4781 114.678 45.414 114.714 45.3499H114.751V45.2536L114.86 45.2216V45.1254H114.897V45.0292H114.97V44.9329L115.079 44.8367V44.7405L115.262 44.6443V44.3878L115.481 44.2274V44.1312L115.59 44.0671V43.9708H115.627L115.7 43.7784H115.773V43.6181H115.809V43.5219L115.919 43.4577V43.3615H115.992V43.2012H116.065V43.105H116.101V43.0087H116.175L116.284 42.7201H116.357C116.394 42.5598 116.43 42.4315 116.467 42.2711H116.54L116.576 42.0146H116.649V41.9184H116.686V41.758H116.759C116.832 41.5335 116.868 41.309 116.941 41.1166H117.014V41.0845H117.051V40.828C117.087 40.7959 117.124 40.7639 117.16 40.7318C117.306 40.7639 117.306 40.7318 117.379 40.7959V40.828H117.489L117.562 40.9242H117.671L117.744 41.0204H117.854L117.927 41.1166H118.037L118.073 41.2128H118.183L118.365 41.4053H118.475L118.767 41.6939H118.876L119.059 41.8863H119.168L119.241 41.9825H119.351L119.461 42.1429H119.57L120.191 42.7522H120.3L120.483 42.9446L120.702 43.0087L120.884 43.2653L121.286 43.5219L121.396 43.7143H121.505L122.089 44.2595H122.199L122.272 44.3557L122.454 44.4198V44.484H122.564L122.966 44.8688H123.075L123.185 45.0612L123.367 45.1254L123.696 45.5102V45.6064H123.769V45.7668H123.805V45.9271H123.842V46.0233H123.915L123.951 46.7289H124.024V47.242H124.097V47.4985L124.207 47.5627V48.0117H124.28V48.3965H124.316V48.9417H124.389V49.1982H124.426L124.499 50.1924C124.609 50.5452 124.609 51.0583 124.718 51.379V51.7639H124.791V51.9563H124.864V52.309H124.937V52.6939H125.01V53.1429H125.083V53.3353H125.12L125.083 53.4956H125.12V54.2012H125.193V54.3615H125.229V54.3936H125.193V54.9388H125.229V55.2274H125.302V55.6122H125.375V56.0612H125.412V56.5102H125.485V56.6706H125.558V56.863H125.594V57.5685H125.667L125.594 57.6647H125.667V57.8571H125.704L125.667 57.9534H125.704V58.1458H125.777V58.2741H125.85V58.4344H125.886L125.959 58.6268H126.032V58.7872H126.106C126.179 58.8834 126.252 58.9155 126.288 59.0437C126.434 59.0758 126.471 59.1399 126.58 59.2041V59.3003C126.763 59.3324 126.69 59.3644 126.763 59.3965L127.201 59.4606L127.274 59.5569H127.383V59.621H127.712V59.6531H127.931V59.7172C128.296 59.7493 128.661 59.7493 129.026 59.6531H129.866V59.621H130.158V59.5569L130.669 59.4927V59.4606L131.29 59.3965V59.3644H131.4V59.3003H131.509L131.582 59.2041H131.765L131.947 59.0117H132.057V59.0437H132.166V58.9796H132.312V58.9155H132.422V58.8834H132.531V58.8192H132.641L132.678 58.723L132.86 58.6589L133.043 58.4665H133.152L133.225 58.3703H133.335L133.517 58.1137H133.627C133.663 58.0816 133.7 58.0175 133.736 57.9534H133.846L133.955 57.8571V57.7609L134.467 57.3761V57.2799L134.576 57.2157V57.1195L134.905 56.863V56.7988L135.087 56.7026V56.6064L135.197 56.5743V56.4781L135.306 56.4461C135.379 56.2857 135.416 56.1574 135.489 55.9971V55.8367L135.598 55.8047V55.7085H135.671V55.516C135.708 55.4519 135.708 55.5481 135.708 55.484H135.671V55.4198L135.781 55.3236V55.1953L135.89 55.1312V54.8426H135.963V54.6822H136V53.7201L135.89 53.7522ZM105.44 59.9738H105.367C105.294 60.0379 105.258 60.102 105.258 60.1662C105.112 60.1982 104.966 60.2624 104.856 60.3265C104.381 60.3907 103.907 60.4227 103.432 60.3907V60.3265H103.25L103.213 60.2303H102.994L102.884 60.07H102.702V60.0058H102.592V59.9738H102.483L102.446 59.8776L101.935 59.7172V59.6531L101.753 59.5889L101.716 59.4927H101.57L101.534 59.3965H101.424L101.241 59.2041H101.132L101.059 59.1079H100.949C100.913 59.0758 100.913 59.0437 100.876 59.0117L100.584 58.8192V58.723L100.475 58.6268V58.5306H100.402V58.4023L100.292 58.3382V58.242H100.219V58.1458H100.183L100.11 57.8571H100.037V57.6968H100V57.5044H99.9271V57.2157H99.8541V56.9271H99.8176V56.2857H99.7445V55.484H99.8176V55.1312H99.8541V54.4898H99.9271V54.137H100V53.9125H100.037V53.5277H100.11L100.183 52.9825H100.219V52.7259H100.292V52.5656H100.329V52.2128H100.402V52.0525H100.438L100.475 51.6997H100.548V51.6035H100.621V51.4111H100.657V51.3149L100.767 51.2828C100.803 51.1866 100.84 51.0904 100.876 50.9942L100.986 50.93L101.278 50.6414L101.68 50.5773V50.5131C102.118 50.4169 102.629 50.8659 102.884 50.9621V51.0583C103.067 51.1225 103.067 51.1866 103.177 51.3149L103.396 51.4752V51.5714L103.505 51.6356V51.7318L103.688 51.828V51.9242L103.797 51.9563V52.1166L103.907 52.1808L103.943 52.4373L104.053 52.5015L104.345 53.2391V53.4315H104.381V53.5918H104.454V53.688H104.491V53.8805H104.564V54.0408H104.637L104.674 54.4257H104.747V54.6822H104.783V54.9388H104.82V55.2915H104.893V55.5802H104.929V56.2857H105.002V56.9913H105.075C105.112 57.2157 105.075 57.4402 104.966 57.6327C104.856 58.0175 104.82 58.4344 104.856 58.8192H104.929V59.0117H104.966V59.1079H105.039V59.2041H105.112C105.148 59.2682 105.148 59.3003 105.148 59.3965L105.331 59.4606C105.367 59.5569 105.331 59.4927 105.404 59.5569L105.44 59.9738ZM125.12 24.9534L125.193 24.8571H125.302V24.793L125.594 24.7289V24.6647C125.959 24.6968 126.325 24.8571 126.58 25.1137L126.69 25.1778V25.2741L126.872 25.3703C126.909 25.4665 126.945 25.5627 126.982 25.6589H127.055V25.7551H127.091V26.0117H127.164C127.164 26.2362 127.201 26.4286 127.237 26.6531H127.164V27.0058H127.091V27.102C127.018 27.2303 126.909 27.3265 126.799 27.3907V27.4548H126.69L126.58 27.6152H126.142L126.069 27.519H125.959L125.886 27.4227H125.777L125.667 27.2624L125.229 26.9096V26.8134L125.047 26.7172C125.047 26.6531 125.01 26.5889 124.974 26.5248H124.937V26.4286H124.864V26.1399H124.791V26.0437H124.755C124.718 25.9155 124.755 25.7872 124.682 25.691H124.645C124.645 25.4023 124.828 25.1137 125.12 24.9534ZM114.678 33.9329C114.166 33.9329 113.619 33.8688 113.144 33.7405H112.962L112.889 33.6443H112.779V33.5802H112.669V33.5481H112.56L112.45 33.4519H112.341L112.268 33.3557H112.158V33.2915L111.976 33.2595C111.903 33.0029 111.72 33.035 111.647 32.8105C111.574 32.6501 111.538 32.4898 111.538 32.2974H111.611V32.105H111.684V32.0087H111.72V31.8484H111.793V31.7522H111.83V31.656H111.903V31.5598H111.976V31.3032H112.012V31.207H112.085V31.0466H112.122V30.9504H112.195L112.268 30.5977H112.304C112.341 30.4694 112.304 30.4694 112.487 30.4373C112.487 30.5656 112.487 30.5656 112.56 30.6297H112.596V30.7259H112.669V30.8222L112.779 30.8863V31.0466H112.852V31.1429H112.925V31.2391L113.108 31.3353L113.181 31.5277L113.29 31.5598V31.656L113.4 31.688V31.7843H113.436V31.8805L113.655 32.0408L113.692 32.2332L113.874 32.3294L113.947 32.586L114.057 32.6501L114.13 32.8105L114.349 32.9708V33.0671H114.422V33.1633L114.532 33.2274V33.3236H114.605C114.678 33.484 114.678 33.6122 114.824 33.7085C114.751 33.7726 114.714 33.8688 114.678 33.9329ZM120.081 36.9796C120.045 37.0437 120.008 37.0758 119.972 37.1399H119.862L119.789 37.2362C119.57 37.3644 119.351 37.3003 119.205 37.4927C118.949 37.4927 118.73 37.3644 118.584 37.2041L118.475 37.1399V37.0437L118.365 36.9796V36.8834L118.256 36.8513V36.7551H118.183L118.11 36.5627H118.073C118 36.4023 118.037 36.3382 117.891 36.2099C117.927 35.8892 118.073 35.9854 118.292 35.8571L118.365 35.7609H118.475L118.584 35.6006H118.694L118.876 35.4082H118.986L119.387 35.0233H119.497L119.789 34.7347H119.862V34.6385C119.935 34.6385 120.045 34.7026 120.081 34.7347V34.7668H120.154V34.8309C120.191 34.863 120.264 34.895 120.337 34.9271L120.373 35.0233L120.556 35.0554V35.1516L120.738 35.2478V35.344C120.811 35.4723 120.921 35.5685 121.03 35.6327C121.067 36.3703 120.592 36.6589 120.081 36.9796ZM121.907 32.5219L121.87 32.6181H121.761L121.651 32.7143H121.542V32.7464H121.432V32.8105H121.286V32.8426H121.103L121.03 32.9388L120.702 32.9708V32.7143H120.665C120.592 32.4577 120.446 32.2012 120.227 32.0087L120.045 31.9125V31.8163L119.935 31.7522C119.862 31.688 119.826 31.6239 119.753 31.5598H119.643L119.57 31.4636H119.461L118.73 30.758L117.598 29.7959L117.562 29.6035L117.379 29.5073V29.4111L117.197 29.3149V29.2187L117.087 29.1545C117.051 29.0904 117.051 29.0262 117.014 28.9621L116.905 28.898C116.868 28.8338 116.868 28.7697 116.832 28.7055L116.722 28.6414L116.649 28.3848H116.613L116.503 28.0962H116.467V27.9038H116.394V27.8076H116.321V27.519H116.284V27.1341H116.321V26.8455H116.394L116.467 26.6531H116.503V26.4927L116.613 26.4286V26.3324H116.649V26.172L116.759 26.1079L116.832 25.9155L116.941 25.8513V25.7551L117.051 25.691V25.5948L117.16 25.5306L117.197 25.3382L117.379 25.242L117.452 25.0496L117.562 24.9854L117.635 24.793L117.744 24.7289V24.6327H117.818V24.5364H117.854C117.927 24.4082 117.964 24.2799 118.073 24.1837C118.073 24.0875 118.037 24.0233 118 23.9271C117.671 23.9592 117.671 24.0875 117.562 24.2799L117.379 24.3761L117.343 24.5364L117.233 24.6006L117.197 24.793L117.087 24.8571V24.9534L116.905 25.0496L116.832 25.242L116.722 25.3061V25.4023L116.613 25.4665L116.54 25.691L116.43 25.7551V25.8513L116.321 25.9155L116.284 26.1079L116.175 26.172V26.2682L116.065 26.3324L116.028 26.5889H115.955V26.6851H115.919V26.8455H115.809V27.102C115.7 27.3907 115.7 27.6793 115.736 27.9679H115.809V28.2566H115.882V28.3528H115.919V28.449H115.992V28.5452H116.028V28.7055H116.101L116.175 28.898H116.211V29.0583H116.284V29.1545L116.394 29.2187V29.379L116.503 29.4431C116.54 29.5073 116.54 29.5714 116.576 29.6356L116.686 29.6997L116.759 29.8921H116.795L116.868 30.0525L116.978 30.1166V30.2128L117.16 30.309C117.197 30.4053 117.233 30.5015 117.27 30.5977L117.671 30.8542L117.708 31.0146L117.927 31.1749L118 31.2711H118.11L118.219 31.3673V31.4636H118.292L118.402 31.6239H118.511L119.314 32.3615H119.424C119.497 32.4257 119.461 32.4898 119.607 32.5539V32.6501C119.899 32.7143 119.753 32.7784 119.899 32.9388L120.118 33.0991C120.154 33.3557 120.045 33.6443 119.899 33.8688L119.716 33.965V34.0612L119.607 34.1254V34.2216L119.314 34.414L118.767 34.9592H118.657L118.475 35.1516H118.365L118.329 35.2478H118.219L118.11 35.344H118V35.3761H117.891V35.4402H117.781L117.744 35.5364H117.525V35.5685H117.343V35.6327H117.124L117.051 35.7289H116.759V35.793L116.467 35.7289C116.248 35.1837 116.028 34.6385 115.773 34.0933L115.663 34.0292C115.627 33.8688 115.554 33.7405 115.481 33.5802H115.408V33.484H115.335V33.3878L115.225 33.2915V33.1953L115.079 33.0671L115.006 32.8746L114.897 32.8426L114.824 32.6501H114.787V32.5539H114.714V32.4257H114.641V32.3294L114.532 32.2332V32.105L114.422 32.0729V31.9767L114.312 31.8805V31.7843H114.239V31.688H114.166L114.13 31.5277L114.02 31.4636V31.3673L113.911 31.3032V31.207L113.728 31.1108V31.0146L113.509 30.8542C113.509 30.7901 113.473 30.7259 113.436 30.6618L113.327 30.5977L113.29 30.4052L113.108 30.309V30.2128L112.998 30.1487C112.962 30.0525 112.925 29.9563 112.889 29.8601H112.852L112.779 29.6997L112.669 29.6676L112.596 29.4752L112.414 29.379L112.304 29.0904L112.195 29.0262C112.122 28.8659 112.085 28.7055 112.012 28.5131H111.939V28.4169H111.903L111.793 28.1283H111.757V27.8397H111.684V27.6793H111.647V27.4869H111.574C111.574 27.1662 111.538 26.8455 111.501 26.5248L111.465 26.4286H111.501V26.1399H111.574V25.8834H111.647V25.691H111.684V25.5306H111.757V25.3382H111.793C111.83 25.242 111.866 25.1458 111.903 25.0496H111.939C111.976 24.9534 112.012 24.8571 112.049 24.7609L112.158 24.6968V24.6006L112.268 24.5364V24.4082H112.341V24.312L112.45 24.2157V24.0875L112.633 23.9913V23.895L112.742 23.8309V23.6706H112.815L112.852 23.5102L112.962 23.4461L113.035 23.2536L113.144 23.1895V23.0292L113.254 22.965V22.8688L113.363 22.8047L113.473 22.7405V22.6443L113.582 22.5802V22.484H113.655V22.3878L113.765 22.2915V22.1953L113.947 22.0991V21.9388L114.057 21.8746V21.7784H114.13V21.6181L114.312 21.5219V21.3615L114.422 21.2974V21.2012H114.495V21.0087L114.605 20.9446V20.7843H114.641V20.688H114.714C114.751 20.5918 114.787 20.4956 114.824 20.3994H114.897L114.97 20.1429H115.006V20.0466H115.079V19.8542L115.189 19.7901V19.6297H115.262V19.5977L115.371 19.5335V19.3732H115.444L115.481 19.1808H115.554L115.59 18.9883L115.7 18.9242V18.7638H115.736C115.7 18.6356 115.663 18.6676 115.627 18.5714C115.189 18.6035 115.189 18.8601 115.006 19.1166L114.897 19.1808L114.824 19.4373L114.714 19.5015L114.641 19.758L114.532 19.8222V19.9825C114.458 20.1108 114.349 20.1429 114.312 20.3353H114.203C114.239 20.0466 114.349 19.758 114.495 19.4694L114.532 19.1808H114.605V19.0845H114.641C114.678 18.9883 114.714 18.8921 114.751 18.7959H114.787C114.824 18.6356 114.86 18.5073 114.897 18.3469H114.933L115.006 18.1545H115.043V17.9942H115.116V17.8338H115.189V17.7376H115.225V17.5773H115.298V17.4169L115.408 17.3528V17.2566H115.481C115.554 17.1603 115.481 17.1603 115.59 17.0641V17.0321C115.663 17 115.736 17.1604 115.773 17.1924H115.882L115.955 17.2886H116.138V17.3528H116.248V17.4169H116.43V17.481H116.613V17.5452H116.832V17.6093H117.051V17.6735H117.379V17.7376H117.818V17.6735H117.891C117.964 17.6735 117.964 17.6093 118.11 17.6093V17.6735H118.803C119.022 17.5773 119.278 17.5131 119.534 17.481C119.643 17.8338 119.753 18.1866 119.862 18.5394H119.899V18.6356H119.972C120.045 18.9563 120.118 19.309 120.191 19.6297H120.264V19.7901H120.337V19.8863H120.373L120.446 20.1749H120.519L120.592 20.5277H120.665V20.6239H120.702L120.775 21.0729H120.848V21.2332H120.884C120.884 21.4257 120.921 21.6181 120.957 21.7784H120.994V21.9388H121.067V22.0991H121.14V22.3557H121.177V22.8047H121.25V22.9971H121.286V23.3499H121.323V23.6385H121.396V23.9913H121.432V24.344H121.505C121.505 24.6006 121.542 24.8571 121.578 25.0816H121.615V25.5948H121.688V26.4927H121.761V27.6793H121.797V28.5773C121.87 28.898 121.87 29.2507 121.797 29.5714V30.277H121.761V30.8863H121.797C121.87 31.0146 121.834 31.1749 121.907 31.2711L122.016 31.3353C122.126 31.4956 122.126 31.5918 122.308 31.688C122.345 32.0408 122.199 32.3294 121.907 32.5219ZM122.381 29.8601L122.454 29.0583H122.381L122.454 28.7055H122.381L122.454 28.2566H122.381C122.381 28.1604 122.454 28.1604 122.454 28.1604L122.381 27.4548C122.418 27.4227 122.454 27.3586 122.454 27.2945H122.381L122.345 26.2041L122.966 26.1079V26.0437H123.075L123.112 25.9475C123.367 25.8192 123.659 25.7551 123.805 25.5627H123.988V25.6268C124.134 25.7551 124.024 25.9796 124.097 26.172H124.17V26.4606H124.207V26.5569H124.28V26.7493H124.353V26.8455L124.463 26.9096V27.07L124.572 27.1341V27.2303H124.645V27.3265L124.755 27.4227V27.519L124.937 27.6152V27.7114L125.047 27.8076H125.156L125.339 28H125.521L125.594 28.0962H125.704L125.74 28.1924H125.85C125.959 28.2566 126.069 28.3207 126.179 28.3848L125.996 28.5773H125.813L125.74 28.6735H125.631V28.7376H125.448V28.8018L125.229 28.8659V28.93H125.12V28.9942H124.937L124.901 29.0904H124.791V29.1545L124.463 29.2187L124.389 29.3149L123.769 29.4111V29.4752H123.659V29.5394H123.55L123.477 29.6356H123.258V29.6997H123.112V29.7638H122.893V29.7959L122.381 29.8601ZM135.197 54.0408V54.4898H135.16V54.586H135.087V54.9388L134.978 54.9708L134.905 55.4198H134.868V55.516H134.795C134.795 55.6122 134.759 55.7085 134.722 55.8047H134.686L134.613 55.9971H134.54L134.503 56.1895L134.394 56.2216V56.3178L133.371 57.312H133.262L133.043 57.5685H132.933L132.897 57.6647H132.787L132.568 57.9213H132.458L132.385 58.0175L132.166 58.0496C132.13 58.1137 132.093 58.1458 132.057 58.2099H131.874L131.838 58.3061L131.546 58.3382L131.509 58.4344H131.4V58.4985H131.071V58.5627H130.961V58.6268H130.779V58.691H130.377V58.723H130.341C130.341 58.691 130.268 58.6589 130.231 58.691V58.723H130.049V58.7872H129.939V58.8513H129.538V58.8834L128.734 58.9475V58.8834H128.698C128.479 58.8834 128.26 58.9155 128.077 58.9475V58.8834H127.968V58.8513L127.383 58.7872V58.723L127.164 58.691V58.723H126.945V58.691H126.763L126.726 58.5948L126.544 58.5627C126.471 58.4023 126.398 58.2099 126.325 58.0496L126.288 57.344C126.398 57.344 126.471 57.344 126.58 57.3761V57.4402H126.763V57.5044H126.945V57.5364H127.164V57.6006H127.456V57.6647H127.749V57.6968C128.15 57.7609 128.515 57.7289 128.88 57.6006H129.172V57.5364H129.355V57.5044H129.574V57.4402H129.866V57.3761H129.976V57.344L130.304 57.2799V57.2478H130.414L130.487 57.1516L130.815 57.0554L130.852 56.9592H131.035L131.108 56.863H131.29L131.473 56.6706H131.582V56.6385H131.692V56.5743C131.838 56.4781 131.801 56.6064 131.874 56.414C132.02 56.3819 132.02 56.3499 132.166 56.3178C132.203 56.1895 132.276 56.0933 132.385 56.0292H132.422V55.9329H132.495L132.604 55.7726L132.787 55.6764V55.516L132.897 55.484L132.97 55.3236H133.006L133.079 55.1312L133.189 55.0991C133.225 55.0029 133.262 54.9067 133.298 54.8105L133.408 54.7784L133.444 54.586H133.517C133.59 54.4257 133.627 54.2974 133.7 54.137H133.736V53.9125H133.809L133.882 53.7201H133.919C133.955 53.4315 133.992 53.1429 134.028 52.8863C134.284 52.8222 134.54 52.8863 134.722 53.0466C134.941 53.1108 134.795 53.0787 134.905 53.207H134.978V53.3032L135.087 53.3673V53.5277L135.197 53.5918V53.7522H135.27V53.9446H135.306C135.343 54.0729 135.233 54.0729 135.27 54.137L135.197 54.0408ZM120.592 10.8746C120.665 11.0991 120.592 11.2274 120.775 11.3878C120.811 11.516 120.775 11.484 120.957 11.5481C121.03 11.6122 120.957 11.5802 121.067 11.6122V11.5481H121.14C121.104 11.3236 121.03 11.0671 120.957 10.8426L120.884 10.6822L120.848 10.4257H120.665V10.4898H120.592V10.7464H120.556C120.519 10.7784 120.556 10.8426 120.592 10.8746ZM111.866 11.6764H111.939V11.8367H111.976V12.0292H112.049V12.1895H112.085L112.158 12.3819H112.231V12.4781L112.341 12.5423V12.7026L112.45 12.7668V12.863L112.633 12.9592V13.0554L112.742 13.1195L112.962 13.3761L113.144 13.4402L113.473 13.793H113.582C113.619 13.8571 113.692 13.9213 113.765 13.9854H113.874L113.911 14.0816L114.203 14.2741V14.3703L114.422 14.5306V14.6268L114.532 14.691L114.605 14.8513H114.641V14.9475H114.678C114.787 15.172 114.824 15.6851 114.605 15.8455C114.568 15.9738 114.605 15.9738 114.422 16.0058C114.422 16.102 114.422 16.1662 114.458 16.2624C114.933 16.2624 114.86 16.0058 115.152 15.8776C115.225 15.5569 115.225 15.2362 115.152 14.9155H115.079V14.723H115.006L114.97 14.5306H114.897L114.86 14.3382L114.751 14.2741L114.714 14.0816L114.495 13.9213V13.8251L114.385 13.7289H114.349C114.276 13.6327 114.239 13.5685 114.166 13.4723H114.057C114.02 13.4082 113.984 13.3761 113.947 13.312H113.838L113.728 13.1516L113.327 12.863V12.7668L112.998 12.5102V12.414L112.889 12.3499V12.2536L112.779 12.1895V12.0933H112.742L112.669 11.9009H112.596L112.56 11.6122H112.487V11.516H112.45V11.2595H112.377V11.0991H112.304L112.268 10.4898C112.304 10.2974 112.487 10.1691 112.56 9.94461L112.377 9.88047V9.81633H112.304V9.88047C112.012 9.94461 111.939 10.2653 111.866 10.4898V10.8426H111.793V11.1953H111.83C111.83 11.3557 111.866 11.516 111.866 11.6764ZM103.615 54.5539H103.542V54.2653H103.505V53.9125H103.432V53.656H103.396V53.4956H103.359C103.359 53.3353 103.323 53.207 103.286 53.0466H103.25V52.9504H103.177V52.758H103.104L103.067 52.5656H102.994V52.4053H102.921V52.309H102.884V52.2128H102.811C102.629 51.8921 102.446 51.5073 102.008 51.4111V51.3469H101.826C101.789 51.4111 101.716 51.4752 101.753 51.6035L101.972 51.7639C102.008 51.8601 102.045 51.9563 102.081 52.0525H102.118V52.1487L102.227 52.1808V52.3411L102.337 52.4053V52.5977H102.373V52.6939H102.446V52.8863H102.519V52.9825H102.556V53.1749H102.629V53.4636H102.702V53.5598H102.738V53.7522C102.884 54.137 102.884 54.7143 103.031 55.0991V56.3499H103.104C103.104 56.6385 103.067 56.9271 103.031 57.1837L103.104 57.344H103.031V57.8571V58.1137H102.958C102.921 58.2741 102.994 58.4665 102.884 58.5627C102.884 58.691 102.921 58.8513 102.994 58.9475C103.14 58.9155 103.177 58.8513 103.286 58.7872C103.359 58.6268 103.432 58.4344 103.505 58.2741V58.0816H103.578V57.8251H103.615V57.5685H103.688V57.0554C103.724 56.6385 103.688 56.2216 103.615 55.8047V54.5539Z" fill="black"/>
</svg>
